{
  "accessors": [
    {
      "bufferView": 3,
      "componentType": 5126,
      "count": 1566,
      "max": [
        1.3399184942245483,
        3.1999995708465576,
        1.3399183750152588
      ],
      "min": [
        -1.339918613433838,
        0.0,
        -1.3399182558059692
      ],
      "type": "VEC3"
    },
    {
      "bufferView": 3,
      "byteOffset": 18792,
      "componentType": 5126,
      "count": 1566,
      "max": [
        1.0,
        1.0,
        1.0
      ],
      "min": [
        -1.0,
        -1.0,
        -1.0
      ],
      "type": "VEC3"
    },
    {
      "bufferView": 4,
      "componentType": 5126,
      "count": 1566,
      "max": [
        1.0,
        0.9949159026145935,
        1.0,
        1.0
      ],
      "min": [
        -1.0,
        -0.9949156045913696,
        -1.0,
        1.0
      ],
      "type": "VEC4"
    },
    {
      "bufferView": 2,
      "componentType": 5126,
      "count": 1566,
      "max": [
        0.9964165687561035,
        0.9970349669456482
      ],
      "min": [
        0.00358465313911438,
        0.003555629402399063
      ],
      "type": "VEC2"
    },
    {
      "bufferView": 1,
      "componentType": 5125,
      "count": 8928,
      "type": "SCALAR"
    },
    {
      "bufferView": 5,
      "componentType": 5126,
      "count": 3,
      "max": [
        1.0,
        0.0,
        0.0,
        0.0,
        0.0,
        1.0,
        1.0,
        0.0,
        0.0,
        0.0,
        1.0,
        0.0,
        0.0,
        4.5862044828481885e-08,
        0.0,
        1.0
      ],
      "min": [
        1.0,
        0.0,
        0.0,
        0.0,
        0.0,
        6.123234262925839e-17,
        0.0,
        0.0,
        0.0,
        -1.0,
        6.123234262925839e-17,
        0.0,
        0.0,
        0.0,
        -1.049201250076294,
        1.0
      ],
      "type": "MAT4"
    },
    {
      "bufferView": 0,
      "componentType": 5123,
      "count": 1566,
      "type": "VEC4"
    },
    {
      "bufferView": 4,
      "byteOffset": 25056,
      "componentType": 5126,
      "count": 1566,
      "max": [
        1.0,
        0.0,
        0.0,
        0.0
      ],
      "min": [
        1.0,
        0.0,
        0.0,
        0.0
      ],
      "type": "VEC4"
    },
    {
      "bufferView": 6,
      "componentType": 5126,
      "count": 49,
      "max": [
        10.0
      ],
      "min": [
        0.0
      ],
      "type": "SCALAR"
    },
    {
      "bufferView": 7,
      "componentType": 5126,
      "count": 49,
      "max": [
        5.551115123125783e-17,
        -4.5862044828481885e-08,
        1.049201250076294
      ],
      "min": [
        -5.551115123125783e-17,
        -4.5862044828481885e-08,
        1.049201250076294
      ],
      "type": "VEC3"
    },
    {
      "bufferView": 6,
      "byteOffset": 196,
      "componentType": 5126,
      "count": 301,
      "max": [
        10.0
      ],
      "min": [
        0.0
      ],
      "type": "SCALAR"
    },
    {
      "bufferView": 8,
      "componentType": 5126,
      "count": 301,
      "max": [
        3.938284010018833e-08,
        7.02105538152864e-08,
        1.0,
        1.0
      ],
      "min": [
        -8.688795105626923e-08,
        -8.660461503495753e-08,
        -0.80901700258255,
        -0.45399048924446106
      ],
      "type": "VEC4"
    },
    {
      "bufferView": 6,
      "byteOffset": 1400,
      "componentType": 5126,
      "count": 301,
      "max": [
        10.0
      ],
      "min": [
        0.0
      ],
      "type": "SCALAR"
    },
    {
      "bufferView": 7,
      "byteOffset": 588,
      "componentType": 5126,
      "count": 301,
      "max": [
        0.4376615285873413,
        0.0,
        0.4691866636276245
      ],
      "min": [
        -0.4466612935066223,
        0.0,
        -0.44758370518684387
      ],
      "type": "VEC3"
    },
    {
      "bufferView": 6,
      "byteOffset": 2604,
      "componentType": 5126,
      "count": 192,
      "max": [
        10.0
      ],
      "min": [
        0.0
      ],
      "type": "SCALAR"
    },
    {
      "bufferView": 8,
      "byteOffset": 4816,
      "componentType": 5126,
      "count": 192,
      "max": [
        -0.7021359205245972,
        0.003085325239226222,
        0.006170591805130243,
        0.7120087146759033
      ],
      "min": [
        -0.7095664143562317,
        -0.006170591805130243,
        -0.003085325239226222,
        0.7046298980712891
      ],
      "type": "VEC4"
    }
  ],
  "animations": [
    {
      "channels": [
        {
          "sampler": 0,
          "target": {
            "node": 9,
            "path": "translation"
          }
        },
        {
          "sampler": 1,
          "target": {
            "node": 9,
            "path": "rotation"
          }
        },
        {
          "sampler": 2,
          "target": {
            "node": 8,
            "path": "translation"
          }
        },
        {
          "sampler": 3,
          "target": {
            "node": 8,
            "path": "rotation"
          }
        }
      ],
      "name": "Take 001",
      "samplers": [
        {
          "input": 8,
          "interpolation": "LINEAR",
          "output": 9
        },
        {
          "input": 10,
          "interpolation": "LINEAR",
          "output": 11
        },
        {
          "input": 12,
          "interpolation": "LINEAR",
          "output": 13
        },
        {
          "input": 14,
          "interpolation": "LINEAR",
          "output": 15
        }
      ]
    }
  ],
  "asset": {
    "extras": {
      "author": "spicymeatballs645 (https://sketchfab.com/spicymeatballs645)",
      "license": "CC-BY-4.0 (http://creativecommons.org/licenses/by/4.0/)",
      "source": "https://sketchfab.com/3d-models/inception-gyro-8ad13f2440be46aeafeae71875ec2820",
      "title": "Inception Gyro"
    },
    "generator": "Sketchfab-12.67.0",
    "version": "2.0"
  },
  "bufferViews": [
    {
      "buffer": 0,
      "byteLength": 12528,
      "byteStride": 8,
      "name": "shortBufferViews",
      "target": 34962
    },
    {
      "buffer": 0,
      "byteLength": 35712,
      "byteOffset": 12528,
      "name": "floatBufferViews",
      "target": 34963
    },
    {
      "buffer": 0,
      "byteLength": 12528,
      "byteOffset": 48240,
      "byteStride": 8,
      "name": "floatBufferViews",
      "target": 34962
    },
    {
      "buffer": 0,
      "byteLength": 37584,
      "byteOffset": 60768,
      "byteStride": 12,
      "name": "floatBufferViews",
      "target": 34962
    },
    {
      "buffer": 0,
      "byteLength": 50112,
      "byteOffset": 98352,
      "byteStride": 16,
      "name": "floatBufferViews",
      "target": 34962
    },
    {
      "buffer": 0,
      "byteLength": 192,
      "byteOffset": 148464,
      "name": "floatBufferViews"
    },
    {
      "buffer": 0,
      "byteLength": 3372,
      "byteOffset": 148656,
      "name": "floatBufferViews"
    },
    {
      "buffer": 0,
      "byteLength": 4200,
      "byteOffset": 152028,
      "byteStride": 12,
      "name": "floatBufferViews"
    },
    {
      "buffer": 0,
      "byteLength": 7888,
      "byteOffset": 156228,
      "byteStride": 16,
      "name": "floatBufferViews"
    }
  ],
  "buffers": [
    {
      "byteLength": 164116,
      "uri": "scene.bin"
    }
  ],
  "images": [
    {
      "uri": "textures/gyro_baseColor.png"
    },
    {
      "uri": "textures/gyro_metallicRoughness.png"
    },
    {
      "uri": "textures/gyro_normal.png"
    }
  ],
  "materials": [
    {
      "name": "gyro",
      "normalTexture": {
        "index": 2
      },
      "pbrMetallicRoughness": {
        "baseColorTexture": {
          "index": 0
        },
        "metallicFactor": 0.0,
        "metallicRoughnessTexture": {
          "index": 1
        }
      }
    }
  ],
  "meshes": [
    {
      "name": "gyro_gyro_0",
      "primitives": [
        {
          "attributes": {
            "JOINTS_0": 6,
            "NORMAL": 1,
            "POSITION": 0,
            "TANGENT": 2,
            "TEXCOORD_0": 3,
            "WEIGHTS_0": 7
          },
          "indices": 4,
          "material": 0,
          "mode": 4
        }
      ]
    }
  ],
  "nodes": [
    {
      "children": [
        1
      ],
      "matrix": [
        1.0,
        0.0,
        0.0,
        0.0,
        0.0,
        2.220446049250313e-16,
        -1.0,
        0.0,
        0.0,
        1.0,
        2.220446049250313e-16,
        0.0,
        0.0,
        0.0,
        0.0,
        1.0
      ],
      "name": "Sketchfab_model"
    },
    {
      "children": [
        2
      ],
      "matrix": [
        1.0,
        0.0,
        0.0,
        0.0,
        0.0,
        0.0,
        1.0,
        0.0,
        0.0,
        -1.0,
        0.0,
        0.0,
        0.0,
        0.0,
        0.0,
        1.0
      ],
      "name": "gyro.FBX"
    },
    {
      "children": [
        3
      ],
      "name": "Object_2"
    },
    {
      "children": [
        4
      ],
      "name": "RootNode"
    },
    {
      "children": [
        5,
        7,
        6,
        10
      ],
      "name": "Object_4"
    },
    {
      "children": [
        8
      ],
      "name": "_rootJoint"
    },
    {
      "matrix": [
        1.0,
        0.0,
        0.0,
        0.0,
        0.0,
        6.123233995736766e-17,
        -1.0,
        0.0,
        0.0,
        1.0,
        6.123233995736766e-17,
        0.0,
        -1.4305113893442467e-07,
        1.5999997854232788,
        1.5797026274660406e-07,
        1.0
      ],
      "name": "Object_6"
    },
    {
      "mesh": 0,
      "name": "Object_7",
      "skin": 0
    },
    {
      "children": [
        9
      ],
      "name": "root_00",
      "rotation": [
        -0.7071068286895752,
        -0.0,
        0.0,
        0.7071068286895752
      ],
      "translation": [
        0.4376615285873413,
        0.0,
        0.1275937557220459
      ]
    },
    {
      "name": "center_01",
      "translation": [
        0.0,
        -4.470348358154297e-08,
        1.049201250076294
      ]
    },
    {
      "name": "gyro",
      "rotation": [
        -0.7071068286895752,
        -0.0,
        0.0,
        0.7071068286895752
      ]
    }
  ],
  "samplers": [
    {
      "magFilter": 9729,
      "minFilter": 9987,
      "wrapS": 10497,
      "wrapT": 10497
    }
  ],
  "scene": 0,
  "scenes": [
    {
      "name": "Sketchfab_Scene",
      "nodes": [
        0
      ]
    }
  ],
  "skins": [
    {
      "inverseBindMatrices": 5,
      "joints": [
        5,
        8,
        9
      ],
      "skeleton": 5
    }
  ],
  "textures": [
    {
      "sampler": 0,
      "source": 0
    },
    {
      "sampler": 0,
      "source": 1
    },
    {
      "sampler": 0,
      "source": 2
    }
  ]
}
